<svg id="Layer_5" enable-background="new 0 0 64 64" height="512" viewBox="0 0 64 64" width="512" xmlns="http://www.w3.org/2000/svg"><g><g><path d="m60 36v6c0 7.73-12.54 14-28 14s-28-6.27-28-14v-6c0 7.73 12.54 14 28 14s28-6.27 28-14z" fill="#aab2bd"/><path d="m13.79 35.1c1.11.26 2.24.46 3.37.6v.01l-.01.05c-3.8 1.08-6.15 2.58-6.15 4.24 0 3.31 9.4 6 21 6 1.04 0 2.07-.02 3.07-.07 10.14-.42 17.93-2.92 17.93-5.93 0-3.07-8.08-5.61-18.5-5.96l15.55-3.59c1.14-.26 1.95-1.28 1.95-2.45 0 1.66.67 3.16 1.76 4.24 1.08 1.09 2.58 1.76 4.24 1.76h1.72c.18.65.28 1.32.28 2 0 7.73-12.54 14-28 14s-28-6.27-28-14c0-1.43.43-2.81 1.23-4.12 2.27 1.22 4.66 2.17 7.12 2.85.48.14.96.26 1.44.37z" fill="#ccd1d9"/><path d="m56 28c1.66 0 3.16.67 4.24 1.76 1.09 1.08 1.76 2.58 1.76 4.24h-2.28-1.72c-1.66 0-3.16-.67-4.24-1.76-1.09-1.08-1.76-2.58-1.76-4.24z" fill="#ff826e"/><path d="m59 22h3c0 1.66-.67 3.16-1.76 4.24-1.08 1.09-2.58 1.76-4.24 1.76h-4c0-1.66.67-3.16 1.76-4.24 1.08-1.09 2.58-1.76 4.24-1.76z" fill="#ff826e"/><path d="m23 20.01c2.31.07 4.61.36 6.87.88l2.15.5 18.03 4.16c1.14.26 1.95 1.28 1.95 2.45s-.81 2.19-1.95 2.45l-15.55 3.59h-.02l-4.61 1.07c-.63.14-1.26.27-1.89.38-1.96.34-3.95.51-5.95.51h-.37c-1.51 0-3.01-.1-4.5-.29v-.01c-1.13-.14-2.26-.34-3.37-.6-.48-.11-.96-.23-1.44-.37-2.46-.68-4.85-1.63-7.12-2.85-.51-.26-1.02-.55-1.52-.85-1.06-.64-1.71-1.79-1.71-3.03s.65-2.39 1.71-3.03c5.43-3.25 11.63-4.97 17.95-4.97h.37c.32 0 .65 0 .97.01z" fill="#fcd770"/><path d="m34.5 34.04h-.02l-4.61 1.07c-.63.14-1.26.27-1.89.38-1.96.34-3.95.51-5.95.51h-.37c-1.51 0-3.01-.1-4.5-.29l-.01.05c-3.8 1.08-6.15 2.58-6.15 4.24 0 3.31 9.4 6 21 6 1.04 0 2.07-.02 3.07-.07 10.14-.42 17.93-2.92 17.93-5.93 0-3.07-8.08-5.61-18.5-5.96z" fill="#ffeaa7"/><path d="m38 11c1.69 0 3.17.84 4.07 2.13l.09.23c-1.4.55-2.48 1.73-2.92 3.19-.68-.34-1.43-.55-2.24-.55-2.76 0-5 2.24-5 5 0 .13.01.26.02.39l-2.15-.5c-2.26-.52-4.56-.81-6.87-.88-.62-.84-1-1.88-1-3.01 0-2.76 2.24-5 5-5 .03 0 .07.01.1.01.46-2.29 2.48-4.01 4.9-4.01 2.13 0 3.93 1.33 4.65 3.21.44-.12.88-.21 1.35-.21z" fill="#a0d468"/><path d="m50.05 25.55-18.03-4.16c-.01-.13-.02-.26-.02-.39 0-2.76 2.24-5 5-5 .81 0 1.56.21 2.24.55.44-1.46 1.52-2.64 2.92-3.19.57-.23 1.19-.36 1.84-.36.47 0 .91.09 1.35.21.72-1.88 2.52-3.21 4.65-3.21 2.42 0 4.44 1.72 4.9 4.01.03 0 .07-.01.1-.01 2.76 0 5 2.24 5 5 0 1.13-.37 2.17-1 3h-1c-1.66 0-3.16.67-4.24 1.76-1.09 1.08-1.76 2.58-1.76 4.24 0-1.17-.81-2.19-1.95-2.45z" fill="#b4dd7f"/></g><g><path d="m63 22v-1h-2.348c.225-.636.348-1.308.348-2 0-3.082-2.336-5.629-5.33-5.963-.825-2.381-3.095-4.037-5.67-4.037-2.2 0-4.168 1.177-5.219 3.061-.268-.041-.525-.061-.781-.061-.485 0-.955.069-1.41.179-1.13-1.368-2.808-2.179-4.59-2.179-.256 0-.513.02-.781.061-1.05-1.884-3.018-3.061-5.219-3.061-2.575 0-4.845 1.656-5.67 4.037-2.994.334-5.33 2.881-5.33 5.963 0 .697.124 1.372.352 2.01-6.394.056-12.665 1.812-18.152 5.103-1.357.816-2.2 2.305-2.2 3.887s.843 3.071 2.2 3.887c.227.136.464.254.693.385-.584 1.209-.893 2.458-.893 3.728v6c0 8.411 12.738 15 29 15s29-6.589 29-15v-6c0-.334-.03-.667-.071-1h2.071v-1c0-2.548-1.373-4.775-3.413-6 2.04-1.225 3.413-3.452 3.413-6zm-17.923-7.831.874.244.327-.847c.602-1.559 2.063-2.566 3.722-2.566 1.897 0 3.546 1.349 3.92 3.207l.161.803h.819c.051 0 .1-.004.149-.01 2.183.027 3.95 1.812 3.95 4 0 .713-.194 1.393-.546 2h-.453c-2.862 0-5.326 1.729-6.41 4.197-.383-.286-.822-.507-1.315-.621l-17.235-3.977c.205-2.016 1.891-3.599 3.96-3.599.604 0 1.204.149 1.787.444l1.062.537.347-1.139c.516-1.699 2.045-2.842 3.804-2.842.32 0 .663.054 1.077.169zm-18.125-1.169.967.01.161-.803c.374-1.858 2.023-3.207 3.92-3.207 1.66 0 3.12 1.007 3.722 2.565l.326.848.875-.244c.414-.115.757-.169 1.077-.169.991 0 1.935.378 2.658 1.034-.819.556-1.505 1.308-1.97 2.22-.553-.169-1.118-.254-1.688-.254-3.017 0-5.514 2.24-5.932 5.143l-.973-.224c-2.139-.494-4.327-.78-6.522-.875-.369-.617-.573-1.313-.573-2.044 0-2.189 1.769-3.974 3.952-4zm-23.952 15c0-.884.471-1.717 1.229-2.172 5.265-3.158 11.293-4.828 17.433-4.828h.365c2.561 0 5.124.292 7.619.868l20.18 4.656c.692.16 1.174.767 1.174 1.476s-.482 1.316-1.174 1.476l-20.18 4.656c-2.495.576-5.058.868-7.619.868h-.365c-2.079 0-4.141-.207-6.169-.583 1.29-2.009 2.507-4.838 2.507-8.417h-2c0 3.497-1.338 6.186-2.606 7.957-3.209-.808-6.302-2.068-9.165-3.786-.758-.454-1.229-1.287-1.229-2.171zm18.662 9h.365c1.936 0 3.872-.165 5.784-.477l4.953 2.477h-18.764v2h12.484l-2.836 1.063.703 1.873 7.831-2.936h6.581l-4.211 2.105.895 1.789 7.789-3.894h6.764v-2h-12.764l-6.249-3.125 3.589-.828c11.219.397 17.424 3.175 17.424 4.953 0 2.039-7.791 5-20 5s-20-2.961-20-5c0-.797 1.414-2.13 5.391-3.27 1.414.169 2.839.27 4.271.27zm37.338 5c0 7.047-12.364 13-27 13s-27-5.953-27-13v-.434c4.192 5.577 14.561 9.434 27 9.434s22.808-3.857 27-9.434zm0-6c0 7.047-12.364 13-27 13s-27-5.953-27-13c0-.937.221-1.869.649-2.782 2.51 1.252 5.154 2.193 7.875 2.827-2.304 1.112-3.524 2.45-3.524 3.955 0 4.596 11.067 7 22 7s22-2.404 22-7c0-3.369-5.86-5.494-13.004-6.434l9.279-2.141c.493-.114.932-.335 1.315-.621 1.084 2.467 3.548 4.196 6.41 4.196h.91c.054.333.09.667.09 1zm1.899-3h-2.899c-2.415 0-4.435-1.721-4.899-4h2.899c2.415 0 4.435 1.721 4.899 4zm-4.899-6h-2.899c.465-2.279 2.484-4 4.899-4h2.899c-.464 2.279-2.484 4-4.899 4z"/><circle cx="8" cy="27" r="1"/><path d="m23.948 25h.929c1.597.396 16.278 4 22.123 4v-2c-5.809 0-21.599-3.931-21.758-3.97l-3.242-.03v1c0 3.671-2.829 8.438-2.857 8.486l1.715 1.028c.118-.197 2.69-4.526 3.09-8.514z"/><path d="m50 15h2c0-1.654-1.346-3-3-3v2c.552 0 1 .448 1 1z"/><path d="m27 18h2c0-1.654-1.346-3-3-3v2c.552 0 1 .448 1 1z"/><path d="m47 22h2c0-1.654-1.346-3-3-3v2c.552 0 1 .448 1 1z"/><path d="m43 20c0-.552.448-1 1-1v-2c-1.654 0-3 1.346-3 3z"/><path d="m51 19h2c0-.552.448-1 1-1v-2c-1.654 0-3 1.346-3 3z"/><path d="m32 13v-2c-1.654 0-3 1.346-3 3h2c0-.552.448-1 1-1z"/></g></g></svg>